<svg version="1.1" viewBox="0.0 0.0 960.0 540.0" fill="none" stroke="none" stroke-linecap="square" stroke-miterlimit="10" xmlns:xlink="http://www.w3.org/1999/xlink" xmlns="http://www.w3.org/2000/svg"><clipPath id="p.0"><path d="m0 0l960.0 0l0 540.0l-960.0 0l0 -540.0z" clip-rule="nonzero"/></clipPath><g clip-path="url(#p.0)"><path fill="#000000" fill-opacity="0.0" d="m0 0l960.0 0l0 540.0l-960.0 0z" fill-rule="evenodd"/><path fill="#000000" fill-opacity="0.0" d="m31.682083 33.635303c11.264534 2.4911995 46.818214 7.162201 67.5872 14.947201c20.76899 7.785 36.961754 16.504196 57.02671 31.762802c20.064941 15.258598 42.59401 30.828598 63.36299 59.788803c20.768982 28.96019 40.83394 69.7536 61.2509 113.9724c20.416962 44.21881 47.522247 108.36719 61.250916 151.3404c13.728638 42.973206 17.60083 88.74899 21.120972 106.49881" fill-rule="evenodd"/><path stroke="#000000" stroke-width="1.0" stroke-linejoin="round" stroke-linecap="butt" d="m31.682083 33.635303c11.264534 2.4911995 46.818214 7.162201 67.5872 14.947201c20.76899 7.785 36.961754 16.504196 57.02671 31.762802c20.064941 15.258598 42.59401 30.828598 63.36299 59.788803c20.768982 28.96019 40.83394 69.7536 61.2509 113.9724c20.416962 44.21881 47.522247 108.36719 61.250916 151.3404c13.728638 42.973206 17.60083 88.74899 21.120972 106.49881" fill-rule="evenodd"/><path fill="#000000" fill-opacity="0.0" d="m363.28772 511.93488c6.2463074 -34.757812 21.86203 -155.62729 37.477783 -208.54681c15.615753 -52.919525 39.21289 -88.30359 56.216705 -108.9704c17.003815 -20.666794 30.537476 -15.969803 45.806213 -15.0303955c15.268707 0.9393921 29.843414 5.3232727 45.806183 20.666794c15.962769 15.343536 35.742737 42.586136 49.970398 71.394394c14.227722 28.808289 26.373291 67.01056 35.39569 101.4552c9.022461 34.44467 14.921753 81.10153 18.738892 105.2128c3.8171997 24.111267 3.4702148 32.878998 4.1642456 39.454834" fill-rule="evenodd"/><path stroke="#000000" stroke-width="1.0" stroke-linejoin="round" stroke-linecap="butt" d="m363.28772 511.93488c6.2463074 -34.757812 21.86203 -155.62729 37.477783 -208.54681c15.615753 -52.919525 39.21289 -88.30359 56.216705 -108.9704c17.003815 -20.666794 30.537476 -15.969803 45.806213 -15.0303955c15.268707 0.9393921 29.843414 5.3232727 45.806183 20.666794c15.962769 15.343536 35.742737 42.586136 49.970398 71.394394c14.227722 28.808289 26.373291 67.01056 35.39569 101.4552c9.022461 34.44467 14.921753 81.10153 18.738892 105.2128c3.8171997 24.111267 3.4702148 32.878998 4.1642456 39.454834" fill-rule="evenodd"/><path fill="#000000" fill-opacity="0.0" d="m656.8693 514.24567c3.9545898 -20.433258 13.8411255 -91.48941 23.7276 -122.59949c9.886475 -31.110107 24.82611 -51.9115 35.59143 -64.061005c10.765259 -12.149506 19.333557 -9.388245 29.000366 -8.835999c9.666809 0.5522461 18.894226 3.1293945 29.000427 12.149506c10.106201 9.020081 22.62909 25.035309 31.63678 41.970978c9.00769 16.935669 16.697205 39.39383 22.409424 59.643005c5.712158 20.249176 9.4470825 47.67758 11.86377 61.85199c2.416687 14.174438 2.1970215 19.328766 2.6364136 23.194489" fill-rule="evenodd"/><path stroke="#000000" stroke-width="1.0" stroke-linejoin="round" stroke-linecap="butt" d="m656.8693 514.24567c3.9545898 -20.433258 13.8411255 -91.48941 23.7276 -122.59949c9.886475 -31.110107 24.82611 -51.9115 35.59143 -64.061005c10.765259 -12.149506 19.333557 -9.388245 29.000366 -8.835999c9.666809 0.5522461 18.894226 3.1293945 29.000427 12.149506c10.106201 9.020081 22.62909 25.035309 31.63678 41.970978c9.00769 16.935669 16.697205 39.39383 22.409424 59.643005c5.712158 20.249176 9.4470825 47.67758 11.86377 61.85199c2.416687 14.174438 2.1970215 19.328766 2.6364136 23.194489" fill-rule="evenodd"/><path fill="#000000" fill-opacity="0.0" d="m842.73193 515.9967c1.7525635 -9.740265 6.134094 -43.611755 10.515564 -58.441498c4.381531 -14.829773 11.002441 -24.745514 15.7734375 -30.537018c4.770935 -5.791504 8.568237 -4.4752502 12.852356 -4.2120056c4.2841797 0.26327515 8.373535 1.4917603 12.852417 5.791504c4.478882 4.299774 10.028748 11.934021 14.020813 20.007019c3.9920044 8.072998 7.3998413 18.778503 9.9313965 28.431c2.5315552 9.652496 4.1867676 22.727234 5.2578125 29.483978c1.0710449 6.7567444 0.9736328 9.213776 1.168396 11.056488" fill-rule="evenodd"/><path stroke="#000000" stroke-width="1.0" stroke-linejoin="round" stroke-linecap="butt" d="m842.73193 515.9967c1.7525635 -9.740265 6.134094 -43.611755 10.515564 -58.441498c4.381531 -14.829773 11.002441 -24.745514 15.7734375 -30.537018c4.770935 -5.791504 8.568237 -4.4752502 12.852356 -4.2120056c4.2841797 0.26327515 8.373535 1.4917603 12.852417 5.791504c4.478882 4.299774 10.028748 11.934021 14.020813 20.007019c3.9920044 8.072998 7.3998413 18.778503 9.9313965 28.431c2.5315552 9.652496 4.1867676 22.727234 5.2578125 29.483978c1.0710449 6.7567444 0.9736328 9.213776 1.168396 11.056488" fill-rule="evenodd"/></g></svg>